<svg width="26" height="27" viewBox="0 0 26 27" fill="none" xmlns="http://www.w3.org/2000/svg">
<path fill-rule="evenodd" clip-rule="evenodd" d="M24.066 0.279139C24.3511 0.268929 24.6286 0.37239 24.8374 0.566763C25.0462 0.761134 25.1693 1.0305 25.1795 1.31559L25.6414 14.2149C25.6516 14.5 25.5482 14.7775 25.3538 14.9863C25.1594 15.1951 24.8901 15.3182 24.605 15.3284C24.3199 15.3386 24.0424 15.2351 23.8336 15.0407C23.6248 14.8464 23.5017 14.577 23.4915 14.2919L23.1225 3.9875L2.09097 26.5836C1.9946 26.6871 1.87879 26.7706 1.75014 26.8294C1.6215 26.8881 1.48254 26.921 1.34119 26.9261C1.19985 26.9311 1.0589 26.9083 0.926378 26.8589C0.793858 26.8095 0.672368 26.7344 0.568845 26.6381C0.465322 26.5417 0.381793 26.4259 0.323028 26.2972C0.264262 26.1686 0.231411 26.0296 0.226349 25.8883C0.221287 25.747 0.244115 25.606 0.293528 25.4735C0.342941 25.341 0.417971 25.2195 0.514336 25.1159L21.5481 2.52196L11.2437 2.89097C10.9586 2.90118 10.6811 2.79772 10.4723 2.60335C10.2635 2.40897 10.1405 2.13961 10.1303 1.85452C10.1201 1.56943 10.2235 1.29195 10.4179 1.08314C10.6123 0.874332 10.8816 0.751288 11.1667 0.741079L24.066 0.279139Z" fill="#ED8438"/>
</svg>
